<?xml version="1.0" encoding="UTF-8"?>
<svg width="248px" height="38px" viewBox="0 0 248 38" version="1.1" xmlns="http://www.w3.org/2000/svg" xmlns:xlink="http://www.w3.org/1999/xlink">
    <title>title</title>
    <defs>
        <linearGradient x1="50%" y1="50%" x2="50%" y2="112.7663%" id="linearGradient-1">
            <stop stop-color="#FFFFFF" offset="0%"></stop>
            <stop stop-color="#FFFFFF" stop-opacity="0.65079525" offset="100%"></stop>
        </linearGradient>
    </defs>
    <g id="title" stroke="none" stroke-width="1" fill="none" fill-rule="evenodd">
        <g transform="translate(0.000000, 1.000000)" fill-rule="nonzero">
            <path d="M2.628,34 C3.078,34 3.4875,33.9505 3.8565,33.8515 C4.2255,33.7525 4.542,33.583 4.806,33.343 C5.07,33.103 5.2755,32.7835 5.4225,32.3845 C5.5695,31.9855 5.643,31.483 5.643,30.877 C5.643,30.229 5.5695,29.701 5.4225,29.293 C5.2755,28.885 5.07,28.567 4.806,28.339 C4.542,28.111 4.2255,27.9565 3.8565,27.8755 C3.4875,27.7945 3.078,27.754 2.628,27.754 L2.628,27.754 L0.828,27.754 L0.828,34 L2.628,34 Z M2.61,33.289 L1.638,33.289 L1.638,28.456 L2.61,28.456 C2.928,28.456 3.2205,28.489 3.4875,28.555 C3.7545,28.621 3.9855,28.7425 4.1805,28.9195 C4.3755,29.0965 4.5285,29.3425 4.6395,29.6575 C4.7505,29.9725 4.806,30.379 4.806,30.877 C4.806,31.345 4.7535,31.735 4.6485,32.047 C4.5435,32.359 4.3935,32.6065 4.1985,32.7895 C4.0035,32.9725 3.771,33.1015 3.501,33.1765 C3.231,33.2515 2.934,33.289 2.61,33.289 L2.61,33.289 Z M8.659,34.09 C8.839,34.09 9.019,34.072 9.199,34.036 C9.379,34 9.5455,33.946 9.6985,33.874 C9.8515,33.802 9.988,33.715 10.108,33.613 C10.228,33.511 10.324,33.394 10.396,33.262 L10.396,33.262 L10.513,34 L11.17,34 L11.17,30.553 C11.17,30.337 11.1415,30.136 11.0845,29.95 C11.0275,29.764 10.9255,29.605 10.7785,29.473 C10.6315,29.341 10.4335,29.2375 10.1845,29.1625 C9.9355,29.0875 9.619,29.05 9.235,29.05 C9.061,29.05 8.878,29.056 8.686,29.068 C8.494,29.08 8.308,29.098 8.128,29.122 L8.128,29.122 L8.128,29.806 C8.302,29.77 8.4835,29.743 8.6725,29.725 C8.8615,29.707 9.037,29.698 9.199,29.698 C9.445,29.698 9.646,29.722 9.802,29.77 C9.958,29.818 10.0795,29.8855 10.1665,29.9725 C10.2535,30.0595 10.3135,30.1645 10.3465,30.2875 C10.3795,30.4105 10.396,30.544 10.396,30.688 L10.396,30.688 L10.396,31.093 L8.911,31.093 C8.623,31.093 8.3605,31.12 8.1235,31.174 C7.8865,31.228 7.684,31.315 7.516,31.435 C7.348,31.555 7.2175,31.714 7.1245,31.912 C7.0315,32.11 6.985,32.353 6.985,32.641 C6.985,33.103 7.1185,33.46 7.3855,33.712 C7.6525,33.964 8.077,34.09 8.659,34.09 Z M8.731,33.442 C8.389,33.442 8.146,33.3745 8.002,33.2395 C7.858,33.1045 7.786,32.902 7.786,32.632 C7.786,32.446 7.81,32.293 7.858,32.173 C7.906,32.053 7.978,31.9585 8.074,31.8895 C8.17,31.8205 8.293,31.774 8.443,31.75 C8.593,31.726 8.767,31.714 8.965,31.714 L8.965,31.714 L10.396,31.714 L10.396,32.515 C10.27,32.803 10.063,33.0295 9.775,33.1945 C9.487,33.3595 9.139,33.442 8.731,33.442 Z M14.447,34.054 C14.555,34.054 14.6495,34.0495 14.7305,34.0405 C14.8115,34.0315 14.888,34.018 14.96,34 L14.96,34 L14.96,33.361 C14.894,33.379 14.8295,33.391 14.7665,33.397 C14.7035,33.403 14.645,33.406 14.591,33.406 C14.435,33.406 14.321,33.37 14.249,33.298 C14.177,33.226 14.141,33.067 14.141,32.821 L14.141,32.821 L14.141,27.16 L13.367,27.16 L13.367,33.019 C13.367,33.385 13.457,33.649 13.637,33.811 C13.817,33.973 14.087,34.054 14.447,34.054 Z M16.887,28.249 C17.049,28.249 17.166,28.222 17.238,28.168 C17.31,28.114 17.346,27.988 17.346,27.79 C17.346,27.586 17.31,27.4585 17.238,27.4075 C17.166,27.3565 17.049,27.331 16.887,27.331 C16.713,27.331 16.5915,27.3565 16.5225,27.4075 C16.4535,27.4585 16.419,27.586 16.419,27.79 C16.419,27.988 16.4535,28.114 16.5225,28.168 C16.5915,28.222 16.713,28.249 16.887,28.249 Z M17.265,34 L17.265,29.14 L16.491,29.14 L16.491,34 L17.265,34 Z M20.803,34.09 C20.983,34.09 21.163,34.072 21.343,34.036 C21.523,34 21.6895,33.946 21.8425,33.874 C21.9955,33.802 22.132,33.715 22.252,33.613 C22.372,33.511 22.468,33.394 22.54,33.262 L22.54,33.262 L22.657,34 L23.314,34 L23.314,30.553 C23.314,30.337 23.2855,30.136 23.2285,29.95 C23.1715,29.764 23.0695,29.605 22.9225,29.473 C22.7755,29.341 22.5775,29.2375 22.3285,29.1625 C22.0795,29.0875 21.763,29.05 21.379,29.05 C21.205,29.05 21.022,29.056 20.83,29.068 C20.638,29.08 20.452,29.098 20.272,29.122 L20.272,29.122 L20.272,29.806 C20.446,29.77 20.6275,29.743 20.8165,29.725 C21.0055,29.707 21.181,29.698 21.343,29.698 C21.589,29.698 21.79,29.722 21.946,29.77 C22.102,29.818 22.2235,29.8855 22.3105,29.9725 C22.3975,30.0595 22.4575,30.1645 22.4905,30.2875 C22.5235,30.4105 22.54,30.544 22.54,30.688 L22.54,30.688 L22.54,31.093 L21.055,31.093 C20.767,31.093 20.5045,31.12 20.2675,31.174 C20.0305,31.228 19.828,31.315 19.66,31.435 C19.492,31.555 19.3615,31.714 19.2685,31.912 C19.1755,32.11 19.129,32.353 19.129,32.641 C19.129,33.103 19.2625,33.46 19.5295,33.712 C19.7965,33.964 20.221,34.09 20.803,34.09 Z M20.875,33.442 C20.533,33.442 20.29,33.3745 20.146,33.2395 C20.002,33.1045 19.93,32.902 19.93,32.632 C19.93,32.446 19.954,32.293 20.002,32.173 C20.05,32.053 20.122,31.9585 20.218,31.8895 C20.314,31.8205 20.437,31.774 20.587,31.75 C20.737,31.726 20.911,31.714 21.109,31.714 L21.109,31.714 L22.54,31.714 L22.54,32.515 C22.414,32.803 22.207,33.0295 21.919,33.1945 C21.631,33.3595 21.283,33.442 20.875,33.442 Z M26.285,34 L26.285,30.715 C26.351,30.499 26.4365,30.328 26.5415,30.202 C26.6465,30.076 26.7635,29.9785 26.8925,29.9095 C27.0215,29.8405 27.1595,29.7955 27.3065,29.7745 C27.4535,29.7535 27.605,29.743 27.761,29.743 C27.953,29.743 28.109,29.77 28.229,29.824 C28.349,29.878 28.4435,29.9545 28.5125,30.0535 C28.5815,30.1525 28.628,30.2755 28.652,30.4225 C28.676,30.5695 28.688,30.736 28.688,30.922 L28.688,30.922 L28.688,34 L29.471,34 L29.471,30.634 C29.471,30.4 29.4455,30.187 29.3945,29.995 C29.3435,29.803 29.2565,29.6365 29.1335,29.4955 C29.0105,29.3545 28.844,29.245 28.634,29.167 C28.424,29.089 28.16,29.05 27.842,29.05 C27.692,29.05 27.5405,29.062 27.3875,29.086 C27.2345,29.11 27.089,29.1505 26.951,29.2075 C26.813,29.2645 26.6855,29.344 26.5685,29.446 C26.4515,29.548 26.357,29.677 26.285,29.833 L26.285,29.833 L26.285,29.14 L25.511,29.14 L25.511,34 L26.285,34 Z M37.24,34.09 C37.636,34.09 37.9915,34.0645 38.3065,34.0135 C38.6215,33.9625 38.893,33.901 39.121,33.829 L39.121,33.829 L39.121,30.652 L37.096,30.652 L37.096,31.336 L38.347,31.336 L38.347,33.271 C38.203,33.313 38.0335,33.343 37.8385,33.361 C37.6435,33.379 37.474,33.388 37.33,33.388 C36.976,33.388 36.6655,33.3565 36.3985,33.2935 C36.1315,33.2305 35.905,33.109 35.719,32.929 C35.533,32.749 35.3935,32.4955 35.3005,32.1685 C35.2075,31.8415 35.161,31.411 35.161,30.877 C35.161,30.373 35.2105,29.959 35.3095,29.635 C35.4085,29.311 35.5525,29.056 35.7415,28.87 C35.9305,28.684 36.1615,28.555 36.4345,28.483 C36.7075,28.411 37.018,28.375 37.366,28.375 C37.684,28.375 37.9765,28.396 38.2435,28.438 C38.5105,28.48 38.749,28.543 38.959,28.627 L38.959,28.627 L38.959,27.907 C38.869,27.871 38.7595,27.838 38.6305,27.808 C38.5015,27.778 38.365,27.7525 38.221,27.7315 C38.077,27.7105 37.9285,27.694 37.7755,27.682 C37.6225,27.67 37.474,27.664 37.33,27.664 C36.862,27.664 36.4405,27.718 36.0655,27.826 C35.6905,27.934 35.374,28.114 35.116,28.366 C34.858,28.618 34.66,28.9495 34.522,29.3605 C34.384,29.7715 34.315,30.277 34.315,30.877 C34.315,31.531 34.3825,32.0665 34.5175,32.4835 C34.6525,32.9005 34.846,33.2275 35.098,33.4645 C35.35,33.7015 35.656,33.865 36.016,33.955 C36.376,34.045 36.784,34.09 37.24,34.09 Z M43.163,34.09 C43.337,34.09 43.5065,34.0825 43.6715,34.0675 C43.8365,34.0525 43.991,34.0315 44.135,34.0045 C44.279,33.9775 44.408,33.946 44.522,33.91 C44.636,33.874 44.729,33.838 44.801,33.802 L44.801,33.802 L44.801,33.091 C44.615,33.181 44.3825,33.256 44.1035,33.316 C43.8245,33.376 43.55,33.406 43.28,33.406 C42.986,33.406 42.74,33.3745 42.542,33.3115 C42.344,33.2485 42.185,33.154 42.065,33.028 C41.945,32.902 41.858,32.7415 41.804,32.5465 C41.75,32.3515 41.723,32.122 41.723,31.858 L41.723,31.858 L45.017,31.651 C45.029,31.537 45.0395,31.4305 45.0485,31.3315 C45.0575,31.2325 45.062,31.15 45.062,31.084 C45.062,30.85 45.038,30.6115 44.99,30.3685 C44.942,30.1255 44.849,29.9065 44.711,29.7115 C44.573,29.5165 44.3765,29.3575 44.1215,29.2345 C43.8665,29.1115 43.532,29.05 43.118,29.05 C42.77,29.05 42.4595,29.0905 42.1865,29.1715 C41.9135,29.2525 41.6825,29.3905 41.4935,29.5855 C41.3045,29.7805 41.1605,30.0385 41.0615,30.3595 C40.9625,30.6805 40.913,31.084 40.913,31.57 C40.913,32.056 40.9625,32.4595 41.0615,32.7805 C41.1605,33.1015 41.306,33.3595 41.498,33.5545 C41.69,33.7495 41.9255,33.8875 42.2045,33.9685 C42.4835,34.0495 42.803,34.09 43.163,34.09 Z M41.723,31.282 C41.729,31.036 41.753,30.814 41.795,30.616 C41.837,30.418 41.909,30.25 42.011,30.112 C42.113,29.974 42.2525,29.869 42.4295,29.797 C42.6065,29.725 42.836,29.689 43.118,29.689 C43.382,29.689 43.592,29.7265 43.748,29.8015 C43.904,29.8765 44.0225,29.9785 44.1035,30.1075 C44.1845,30.2365 44.237,30.3865 44.261,30.5575 C44.285,30.7285 44.297,30.907 44.297,31.093 L44.297,31.093 L41.723,31.282 Z M47.727,34 L47.727,30.715 C47.793,30.499 47.8785,30.328 47.9835,30.202 C48.0885,30.076 48.2055,29.9785 48.3345,29.9095 C48.4635,29.8405 48.6015,29.7955 48.7485,29.7745 C48.8955,29.7535 49.047,29.743 49.203,29.743 C49.395,29.743 49.551,29.77 49.671,29.824 C49.791,29.878 49.8855,29.9545 49.9545,30.0535 C50.0235,30.1525 50.07,30.2755 50.094,30.4225 C50.118,30.5695 50.13,30.736 50.13,30.922 L50.13,30.922 L50.13,34 L50.913,34 L50.913,30.634 C50.913,30.4 50.8875,30.187 50.8365,29.995 C50.7855,29.803 50.6985,29.6365 50.5755,29.4955 C50.4525,29.3545 50.286,29.245 50.076,29.167 C49.866,29.089 49.602,29.05 49.284,29.05 C49.134,29.05 48.9825,29.062 48.8295,29.086 C48.6765,29.11 48.531,29.1505 48.393,29.2075 C48.255,29.2645 48.1275,29.344 48.0105,29.446 C47.8935,29.548 47.799,29.677 47.727,29.833 L47.727,29.833 L47.727,29.14 L46.953,29.14 L46.953,34 L47.727,34 Z M55.027,34.09 C55.201,34.09 55.3705,34.0825 55.5355,34.0675 C55.7005,34.0525 55.855,34.0315 55.999,34.0045 C56.143,33.9775 56.272,33.946 56.386,33.91 C56.5,33.874 56.593,33.838 56.665,33.802 L56.665,33.802 L56.665,33.091 C56.479,33.181 56.2465,33.256 55.9675,33.316 C55.6885,33.376 55.414,33.406 55.144,33.406 C54.85,33.406 54.604,33.3745 54.406,33.3115 C54.208,33.2485 54.049,33.154 53.929,33.028 C53.809,32.902 53.722,32.7415 53.668,32.5465 C53.614,32.3515 53.587,32.122 53.587,31.858 L53.587,31.858 L56.881,31.651 C56.893,31.537 56.9035,31.4305 56.9125,31.3315 C56.9215,31.2325 56.926,31.15 56.926,31.084 C56.926,30.85 56.902,30.6115 56.854,30.3685 C56.806,30.1255 56.713,29.9065 56.575,29.7115 C56.437,29.5165 56.2405,29.3575 55.9855,29.2345 C55.7305,29.1115 55.396,29.05 54.982,29.05 C54.634,29.05 54.3235,29.0905 54.0505,29.1715 C53.7775,29.2525 53.5465,29.3905 53.3575,29.5855 C53.1685,29.7805 53.0245,30.0385 52.9255,30.3595 C52.8265,30.6805 52.777,31.084 52.777,31.57 C52.777,32.056 52.8265,32.4595 52.9255,32.7805 C53.0245,33.1015 53.17,33.3595 53.362,33.5545 C53.554,33.7495 53.7895,33.8875 54.0685,33.9685 C54.3475,34.0495 54.667,34.09 55.027,34.09 Z M53.587,31.282 C53.593,31.036 53.617,30.814 53.659,30.616 C53.701,30.418 53.773,30.25 53.875,30.112 C53.977,29.974 54.1165,29.869 54.2935,29.797 C54.4705,29.725 54.7,29.689 54.982,29.689 C55.246,29.689 55.456,29.7265 55.612,29.8015 C55.768,29.8765 55.8865,29.9785 55.9675,30.1075 C56.0485,30.2365 56.101,30.3865 56.125,30.5575 C56.149,30.7285 56.161,30.907 56.161,31.093 L56.161,31.093 L53.587,31.282 Z M59.591,34 L59.591,30.823 C59.657,30.607 59.744,30.43 59.852,30.292 C59.96,30.154 60.08,30.0445 60.212,29.9635 C60.344,29.8825 60.485,29.827 60.635,29.797 C60.785,29.767 60.938,29.752 61.094,29.752 L61.094,29.752 L61.202,29.752 L61.229,29.05 L61.139,29.05 C60.995,29.05 60.8465,29.062 60.6935,29.086 C60.5405,29.11 60.395,29.158 60.257,29.23 C60.119,29.302 59.993,29.401 59.879,29.527 C59.765,29.653 59.669,29.818 59.591,30.022 L59.591,30.022 L59.591,29.14 L58.817,29.14 L58.817,34 L59.591,34 Z M63.687,34.09 C63.867,34.09 64.047,34.072 64.227,34.036 C64.407,34 64.5735,33.946 64.7265,33.874 C64.8795,33.802 65.016,33.715 65.136,33.613 C65.256,33.511 65.352,33.394 65.424,33.262 L65.424,33.262 L65.541,34 L66.198,34 L66.198,30.553 C66.198,30.337 66.1695,30.136 66.1125,29.95 C66.0555,29.764 65.9535,29.605 65.8065,29.473 C65.6595,29.341 65.4615,29.2375 65.2125,29.1625 C64.9635,29.0875 64.647,29.05 64.263,29.05 C64.089,29.05 63.906,29.056 63.714,29.068 C63.522,29.08 63.336,29.098 63.156,29.122 L63.156,29.122 L63.156,29.806 C63.33,29.77 63.5115,29.743 63.7005,29.725 C63.8895,29.707 64.065,29.698 64.227,29.698 C64.473,29.698 64.674,29.722 64.83,29.77 C64.986,29.818 65.1075,29.8855 65.1945,29.9725 C65.2815,30.0595 65.3415,30.1645 65.3745,30.2875 C65.4075,30.4105 65.424,30.544 65.424,30.688 L65.424,30.688 L65.424,31.093 L63.939,31.093 C63.651,31.093 63.3885,31.12 63.1515,31.174 C62.9145,31.228 62.712,31.315 62.544,31.435 C62.376,31.555 62.2455,31.714 62.1525,31.912 C62.0595,32.11 62.013,32.353 62.013,32.641 C62.013,33.103 62.1465,33.46 62.4135,33.712 C62.6805,33.964 63.105,34.09 63.687,34.09 Z M63.759,33.442 C63.417,33.442 63.174,33.3745 63.03,33.2395 C62.886,33.1045 62.814,32.902 62.814,32.632 C62.814,32.446 62.838,32.293 62.886,32.173 C62.934,32.053 63.006,31.9585 63.102,31.8895 C63.198,31.8205 63.321,31.774 63.471,31.75 C63.621,31.726 63.795,31.714 63.993,31.714 L63.993,31.714 L65.424,31.714 L65.424,32.515 C65.298,32.803 65.091,33.0295 64.803,33.1945 C64.515,33.3595 64.167,33.442 63.759,33.442 Z M69.475,34.054 C69.583,34.054 69.6775,34.0495 69.7585,34.0405 C69.8395,34.0315 69.916,34.018 69.988,34 L69.988,34 L69.988,33.361 C69.922,33.379 69.8575,33.391 69.7945,33.397 C69.7315,33.403 69.673,33.406 69.619,33.406 C69.463,33.406 69.349,33.37 69.277,33.298 C69.205,33.226 69.169,33.067 69.169,32.821 L69.169,32.821 L69.169,27.16 L68.395,27.16 L68.395,33.019 C68.395,33.385 68.485,33.649 68.665,33.811 C68.845,33.973 69.115,34.054 69.475,34.054 Z M78.046,34 L78.046,28.573 L78.1,28.573 L79.72,32.587 L80.602,32.587 L82.204,28.573 L82.258,28.573 L82.258,34 L83.068,34 L83.068,27.754 L81.79,27.754 L80.197,31.777 L80.143,31.777 L78.55,27.754 L77.254,27.754 L77.254,34 L78.046,34 Z M86.615,34.09 C86.795,34.09 86.975,34.072 87.155,34.036 C87.335,34 87.5015,33.946 87.6545,33.874 C87.8075,33.802 87.944,33.715 88.064,33.613 C88.184,33.511 88.28,33.394 88.352,33.262 L88.352,33.262 L88.469,34 L89.126,34 L89.126,30.553 C89.126,30.337 89.0975,30.136 89.0405,29.95 C88.9835,29.764 88.8815,29.605 88.7345,29.473 C88.5875,29.341 88.3895,29.2375 88.1405,29.1625 C87.8915,29.0875 87.575,29.05 87.191,29.05 C87.017,29.05 86.834,29.056 86.642,29.068 C86.45,29.08 86.264,29.098 86.084,29.122 L86.084,29.122 L86.084,29.806 C86.258,29.77 86.4395,29.743 86.6285,29.725 C86.8175,29.707 86.993,29.698 87.155,29.698 C87.401,29.698 87.602,29.722 87.758,29.77 C87.914,29.818 88.0355,29.8855 88.1225,29.9725 C88.2095,30.0595 88.2695,30.1645 88.3025,30.2875 C88.3355,30.4105 88.352,30.544 88.352,30.688 L88.352,30.688 L88.352,31.093 L86.867,31.093 C86.579,31.093 86.3165,31.12 86.0795,31.174 C85.8425,31.228 85.64,31.315 85.472,31.435 C85.304,31.555 85.1735,31.714 85.0805,31.912 C84.9875,32.11 84.941,32.353 84.941,32.641 C84.941,33.103 85.0745,33.46 85.3415,33.712 C85.6085,33.964 86.033,34.09 86.615,34.09 Z M86.687,33.442 C86.345,33.442 86.102,33.3745 85.958,33.2395 C85.814,33.1045 85.742,32.902 85.742,32.632 C85.742,32.446 85.766,32.293 85.814,32.173 C85.862,32.053 85.934,31.9585 86.03,31.8895 C86.126,31.8205 86.249,31.774 86.399,31.75 C86.549,31.726 86.723,31.714 86.921,31.714 L86.921,31.714 L88.352,31.714 L88.352,32.515 C88.226,32.803 88.019,33.0295 87.731,33.1945 C87.443,33.3595 87.095,33.442 86.687,33.442 Z M92.097,34 L92.097,30.715 C92.163,30.499 92.2485,30.328 92.3535,30.202 C92.4585,30.076 92.5755,29.9785 92.7045,29.9095 C92.8335,29.8405 92.9715,29.7955 93.1185,29.7745 C93.2655,29.7535 93.417,29.743 93.573,29.743 C93.765,29.743 93.921,29.77 94.041,29.824 C94.161,29.878 94.2555,29.9545 94.3245,30.0535 C94.3935,30.1525 94.44,30.2755 94.464,30.4225 C94.488,30.5695 94.5,30.736 94.5,30.922 L94.5,30.922 L94.5,34 L95.283,34 L95.283,30.634 C95.283,30.4 95.2575,30.187 95.2065,29.995 C95.1555,29.803 95.0685,29.6365 94.9455,29.4955 C94.8225,29.3545 94.656,29.245 94.446,29.167 C94.236,29.089 93.972,29.05 93.654,29.05 C93.504,29.05 93.3525,29.062 93.1995,29.086 C93.0465,29.11 92.901,29.1505 92.763,29.2075 C92.625,29.2645 92.4975,29.344 92.3805,29.446 C92.2635,29.548 92.169,29.677 92.097,29.833 L92.097,29.833 L92.097,29.14 L91.323,29.14 L91.323,34 L92.097,34 Z M98.785,34.09 C98.965,34.09 99.145,34.072 99.325,34.036 C99.505,34 99.6715,33.946 99.8245,33.874 C99.9775,33.802 100.114,33.715 100.234,33.613 C100.354,33.511 100.45,33.394 100.522,33.262 L100.522,33.262 L100.639,34 L101.296,34 L101.296,30.553 C101.296,30.337 101.2675,30.136 101.2105,29.95 C101.1535,29.764 101.0515,29.605 100.9045,29.473 C100.7575,29.341 100.5595,29.2375 100.3105,29.1625 C100.0615,29.0875 99.745,29.05 99.361,29.05 C99.187,29.05 99.004,29.056 98.812,29.068 C98.62,29.08 98.434,29.098 98.254,29.122 L98.254,29.122 L98.254,29.806 C98.428,29.77 98.6095,29.743 98.7985,29.725 C98.9875,29.707 99.163,29.698 99.325,29.698 C99.571,29.698 99.772,29.722 99.928,29.77 C100.084,29.818 100.2055,29.8855 100.2925,29.9725 C100.3795,30.0595 100.4395,30.1645 100.4725,30.2875 C100.5055,30.4105 100.522,30.544 100.522,30.688 L100.522,30.688 L100.522,31.093 L99.037,31.093 C98.749,31.093 98.4865,31.12 98.2495,31.174 C98.0125,31.228 97.81,31.315 97.642,31.435 C97.474,31.555 97.3435,31.714 97.2505,31.912 C97.1575,32.11 97.111,32.353 97.111,32.641 C97.111,33.103 97.2445,33.46 97.5115,33.712 C97.7785,33.964 98.203,34.09 98.785,34.09 Z M98.857,33.442 C98.515,33.442 98.272,33.3745 98.128,33.2395 C97.984,33.1045 97.912,32.902 97.912,32.632 C97.912,32.446 97.936,32.293 97.984,32.173 C98.032,32.053 98.104,31.9585 98.2,31.8895 C98.296,31.8205 98.419,31.774 98.569,31.75 C98.719,31.726 98.893,31.714 99.091,31.714 L99.091,31.714 L100.522,31.714 L100.522,32.515 C100.396,32.803 100.189,33.0295 99.901,33.1945 C99.613,33.3595 99.265,33.442 98.857,33.442 Z M105.203,35.8 C106.025,35.8 106.6265,35.611 107.0075,35.233 C107.3885,34.855 107.579,34.33 107.579,33.658 L107.579,33.658 L107.579,29.14 L106.805,29.14 L106.805,30.049 C106.757,29.905 106.694,29.7715 106.616,29.6485 C106.538,29.5255 106.4375,29.4205 106.3145,29.3335 C106.1915,29.2465 106.0415,29.1775 105.8645,29.1265 C105.6875,29.0755 105.476,29.05 105.23,29.05 C104.822,29.05 104.489,29.116 104.231,29.248 C103.973,29.38 103.7675,29.5585 103.6145,29.7835 C103.4615,30.0085 103.3565,30.271 103.2995,30.571 C103.2425,30.871 103.214,31.189 103.214,31.525 C103.214,31.897 103.2425,32.2345 103.2995,32.5375 C103.3565,32.8405 103.4615,33.1 103.6145,33.316 C103.7675,33.532 103.973,33.7 104.231,33.82 C104.489,33.94 104.822,34 105.23,34 C105.698,34 106.052,33.9205 106.292,33.7615 C106.532,33.6025 106.703,33.379 106.805,33.091 L106.805,33.091 L106.805,33.577 C106.805,34.135 106.6745,34.534 106.4135,34.774 C106.1525,35.014 105.752,35.134 105.212,35.134 C104.786,35.134 104.39,35.098 104.024,35.026 L104.024,35.026 L104.024,35.683 C104.18,35.713 104.363,35.74 104.573,35.764 C104.783,35.788 104.993,35.8 105.203,35.8 Z M105.338,33.352 C105.05,33.352 104.8205,33.304 104.6495,33.208 C104.4785,33.112 104.348,32.9815 104.258,32.8165 C104.168,32.6515 104.1095,32.458 104.0825,32.236 C104.0555,32.014 104.042,31.777 104.042,31.525 C104.042,31.291 104.054,31.063 104.078,30.841 C104.102,30.619 104.159,30.424 104.249,30.256 C104.339,30.088 104.4695,29.953 104.6405,29.851 C104.8115,29.749 105.044,29.698 105.338,29.698 C105.632,29.698 105.875,29.7415 106.067,29.8285 C106.259,29.9155 106.412,30.037 106.526,30.193 C106.64,30.349 106.7195,30.541 106.7645,30.769 C106.8095,30.997 106.832,31.249 106.832,31.525 C106.832,31.813 106.8095,32.071 106.7645,32.299 C106.7195,32.527 106.64,32.719 106.526,32.875 C106.412,33.031 106.259,33.1495 106.067,33.2305 C105.875,33.3115 105.632,33.352 105.338,33.352 Z M111.729,34.09 C111.903,34.09 112.0725,34.0825 112.2375,34.0675 C112.4025,34.0525 112.557,34.0315 112.701,34.0045 C112.845,33.9775 112.974,33.946 113.088,33.91 C113.202,33.874 113.295,33.838 113.367,33.802 L113.367,33.802 L113.367,33.091 C113.181,33.181 112.9485,33.256 112.6695,33.316 C112.3905,33.376 112.116,33.406 111.846,33.406 C111.552,33.406 111.306,33.3745 111.108,33.3115 C110.91,33.2485 110.751,33.154 110.631,33.028 C110.511,32.902 110.424,32.7415 110.37,32.5465 C110.316,32.3515 110.289,32.122 110.289,31.858 L110.289,31.858 L113.583,31.651 C113.595,31.537 113.6055,31.4305 113.6145,31.3315 C113.6235,31.2325 113.628,31.15 113.628,31.084 C113.628,30.85 113.604,30.6115 113.556,30.3685 C113.508,30.1255 113.415,29.9065 113.277,29.7115 C113.139,29.5165 112.9425,29.3575 112.6875,29.2345 C112.4325,29.1115 112.098,29.05 111.684,29.05 C111.336,29.05 111.0255,29.0905 110.7525,29.1715 C110.4795,29.2525 110.2485,29.3905 110.0595,29.5855 C109.8705,29.7805 109.7265,30.0385 109.6275,30.3595 C109.5285,30.6805 109.479,31.084 109.479,31.57 C109.479,32.056 109.5285,32.4595 109.6275,32.7805 C109.7265,33.1015 109.872,33.3595 110.064,33.5545 C110.256,33.7495 110.4915,33.8875 110.7705,33.9685 C111.0495,34.0495 111.369,34.09 111.729,34.09 Z M110.289,31.282 C110.295,31.036 110.319,30.814 110.361,30.616 C110.403,30.418 110.475,30.25 110.577,30.112 C110.679,29.974 110.8185,29.869 110.9955,29.797 C111.1725,29.725 111.402,29.689 111.684,29.689 C111.948,29.689 112.158,29.7265 112.314,29.8015 C112.47,29.8765 112.5885,29.9785 112.6695,30.1075 C112.7505,30.2365 112.803,30.3865 112.827,30.5575 C112.851,30.7285 112.863,30.907 112.863,31.093 L112.863,31.093 L110.289,31.282 Z M116.293,34 L116.293,30.625 C116.353,30.439 116.425,30.2875 116.509,30.1705 C116.593,30.0535 116.689,29.9635 116.797,29.9005 C116.905,29.8375 117.025,29.7955 117.157,29.7745 C117.289,29.7535 117.43,29.743 117.58,29.743 C117.934,29.743 118.171,29.8465 118.291,30.0535 C118.411,30.2605 118.471,30.55 118.471,30.922 L118.471,30.922 L118.471,34 L119.245,34 L119.245,30.598 C119.299,30.424 119.368,30.2815 119.452,30.1705 C119.536,30.0595 119.632,29.9725 119.74,29.9095 C119.848,29.8465 119.9665,29.803 120.0955,29.779 C120.2245,29.755 120.361,29.743 120.505,29.743 C120.871,29.743 121.1185,29.845 121.2475,30.049 C121.3765,30.253 121.441,30.544 121.441,30.922 L121.441,30.922 L121.441,34 L122.215,34 L122.215,30.643 C122.215,30.409 122.185,30.1945 122.125,29.9995 C122.065,29.8045 121.9705,29.6365 121.8415,29.4955 C121.7125,29.3545 121.5475,29.245 121.3465,29.167 C121.1455,29.089 120.904,29.05 120.622,29.05 C120.472,29.05 120.3235,29.062 120.1765,29.086 C120.0295,29.11 119.8885,29.152 119.7535,29.212 C119.6185,29.272 119.4955,29.353 119.3845,29.455 C119.2735,29.557 119.182,29.686 119.11,29.842 C119.008,29.596 118.843,29.4025 118.615,29.2615 C118.387,29.1205 118.081,29.05 117.697,29.05 C117.403,29.05 117.133,29.0995 116.887,29.1985 C116.641,29.2975 116.443,29.491 116.293,29.779 L116.293,29.779 L116.293,29.14 L115.519,29.14 L115.519,34 L116.293,34 Z M126.32,34.09 C126.494,34.09 126.6635,34.0825 126.8285,34.0675 C126.9935,34.0525 127.148,34.0315 127.292,34.0045 C127.436,33.9775 127.565,33.946 127.679,33.91 C127.793,33.874 127.886,33.838 127.958,33.802 L127.958,33.802 L127.958,33.091 C127.772,33.181 127.5395,33.256 127.2605,33.316 C126.9815,33.376 126.707,33.406 126.437,33.406 C126.143,33.406 125.897,33.3745 125.699,33.3115 C125.501,33.2485 125.342,33.154 125.222,33.028 C125.102,32.902 125.015,32.7415 124.961,32.5465 C124.907,32.3515 124.88,32.122 124.88,31.858 L124.88,31.858 L128.174,31.651 C128.186,31.537 128.1965,31.4305 128.2055,31.3315 C128.2145,31.2325 128.219,31.15 128.219,31.084 C128.219,30.85 128.195,30.6115 128.147,30.3685 C128.099,30.1255 128.006,29.9065 127.868,29.7115 C127.73,29.5165 127.5335,29.3575 127.2785,29.2345 C127.0235,29.1115 126.689,29.05 126.275,29.05 C125.927,29.05 125.6165,29.0905 125.3435,29.1715 C125.0705,29.2525 124.8395,29.3905 124.6505,29.5855 C124.4615,29.7805 124.3175,30.0385 124.2185,30.3595 C124.1195,30.6805 124.07,31.084 124.07,31.57 C124.07,32.056 124.1195,32.4595 124.2185,32.7805 C124.3175,33.1015 124.463,33.3595 124.655,33.5545 C124.847,33.7495 125.0825,33.8875 125.3615,33.9685 C125.6405,34.0495 125.96,34.09 126.32,34.09 Z M124.88,31.282 C124.886,31.036 124.91,30.814 124.952,30.616 C124.994,30.418 125.066,30.25 125.168,30.112 C125.27,29.974 125.4095,29.869 125.5865,29.797 C125.7635,29.725 125.993,29.689 126.275,29.689 C126.539,29.689 126.749,29.7265 126.905,29.8015 C127.061,29.8765 127.1795,29.9785 127.2605,30.1075 C127.3415,30.2365 127.394,30.3865 127.418,30.5575 C127.442,30.7285 127.454,30.907 127.454,31.093 L127.454,31.093 L124.88,31.282 Z M130.884,34 L130.884,30.715 C130.95,30.499 131.0355,30.328 131.1405,30.202 C131.2455,30.076 131.3625,29.9785 131.4915,29.9095 C131.6205,29.8405 131.7585,29.7955 131.9055,29.7745 C132.0525,29.7535 132.204,29.743 132.36,29.743 C132.552,29.743 132.708,29.77 132.828,29.824 C132.948,29.878 133.0425,29.9545 133.1115,30.0535 C133.1805,30.1525 133.227,30.2755 133.251,30.4225 C133.275,30.5695 133.287,30.736 133.287,30.922 L133.287,30.922 L133.287,34 L134.07,34 L134.07,30.634 C134.07,30.4 134.0445,30.187 133.9935,29.995 C133.9425,29.803 133.8555,29.6365 133.7325,29.4955 C133.6095,29.3545 133.443,29.245 133.233,29.167 C133.023,29.089 132.759,29.05 132.441,29.05 C132.291,29.05 132.1395,29.062 131.9865,29.086 C131.8335,29.11 131.688,29.1505 131.55,29.2075 C131.412,29.2645 131.2845,29.344 131.1675,29.446 C131.0505,29.548 130.956,29.677 130.884,29.833 L130.884,29.833 L130.884,29.14 L130.11,29.14 L130.11,34 L130.884,34 Z M137.716,34.054 C137.818,34.054 137.911,34.0495 137.995,34.0405 C138.079,34.0315 138.169,34.021 138.265,34.009 L138.265,34.009 L138.265,33.352 C138.181,33.37 138.0985,33.3835 138.0175,33.3925 C137.9365,33.4015 137.842,33.406 137.734,33.406 C137.584,33.406 137.464,33.3925 137.374,33.3655 C137.284,33.3385 137.2135,33.2905 137.1625,33.2215 C137.1115,33.1525 137.077,33.058 137.059,32.938 C137.041,32.818 137.032,32.662 137.032,32.47 L137.032,32.47 L137.032,29.788 L138.238,29.788 L138.238,29.14 L137.032,29.14 L137.032,27.988 L136.258,27.988 L136.258,29.14 L135.538,29.14 L135.538,29.788 L136.258,29.788 L136.258,32.515 C136.258,32.833 136.2835,33.0925 136.3345,33.2935 C136.3855,33.4945 136.4695,33.652 136.5865,33.766 C136.7035,33.88 136.8535,33.9565 137.0365,33.9955 C137.2195,34.0345 137.446,34.054 137.716,34.054 Z M143.487,34 L143.487,31.786 L144.414,31.786 C144.816,31.786 145.1625,31.7485 145.4535,31.6735 C145.7445,31.5985 145.9815,31.48 146.1645,31.318 C146.3475,31.156 146.4825,30.946 146.5695,30.688 C146.6565,30.43 146.7,30.118 146.7,29.752 C146.7,29.404 146.664,29.104 146.592,28.852 C146.52,28.6 146.3955,28.393 146.2185,28.231 C146.0415,28.069 145.806,27.949 145.512,27.871 C145.218,27.793 144.852,27.754 144.414,27.754 L144.414,27.754 L142.677,27.754 L142.677,34 L143.487,34 Z M144.342,31.111 L143.487,31.111 L143.487,28.456 L144.342,28.456 C144.63,28.456 144.873,28.4785 145.071,28.5235 C145.269,28.5685 145.4265,28.642 145.5435,28.744 C145.6605,28.846 145.7445,28.9795 145.7955,29.1445 C145.8465,29.3095 145.872,29.512 145.872,29.752 C145.872,30.016 145.8465,30.235 145.7955,30.409 C145.7445,30.583 145.6605,30.7225 145.5435,30.8275 C145.4265,30.9325 145.269,31.006 145.071,31.048 C144.873,31.09 144.63,31.111 144.342,31.111 L144.342,31.111 Z M149.671,34.054 C149.779,34.054 149.8735,34.0495 149.9545,34.0405 C150.0355,34.0315 150.112,34.018 150.184,34 L150.184,34 L150.184,33.361 C150.118,33.379 150.0535,33.391 149.9905,33.397 C149.9275,33.403 149.869,33.406 149.815,33.406 C149.659,33.406 149.545,33.37 149.473,33.298 C149.401,33.226 149.365,33.067 149.365,32.821 L149.365,32.821 L149.365,27.16 L148.591,27.16 L148.591,33.019 C148.591,33.385 148.681,33.649 148.861,33.811 C149.041,33.973 149.311,34.054 149.671,34.054 Z M153.065,34.09 C153.245,34.09 153.425,34.072 153.605,34.036 C153.785,34 153.9515,33.946 154.1045,33.874 C154.2575,33.802 154.394,33.715 154.514,33.613 C154.634,33.511 154.73,33.394 154.802,33.262 L154.802,33.262 L154.919,34 L155.576,34 L155.576,30.553 C155.576,30.337 155.5475,30.136 155.4905,29.95 C155.4335,29.764 155.3315,29.605 155.1845,29.473 C155.0375,29.341 154.8395,29.2375 154.5905,29.1625 C154.3415,29.0875 154.025,29.05 153.641,29.05 C153.467,29.05 153.284,29.056 153.092,29.068 C152.9,29.08 152.714,29.098 152.534,29.122 L152.534,29.122 L152.534,29.806 C152.708,29.77 152.8895,29.743 153.0785,29.725 C153.2675,29.707 153.443,29.698 153.605,29.698 C153.851,29.698 154.052,29.722 154.208,29.77 C154.364,29.818 154.4855,29.8855 154.5725,29.9725 C154.6595,30.0595 154.7195,30.1645 154.7525,30.2875 C154.7855,30.4105 154.802,30.544 154.802,30.688 L154.802,30.688 L154.802,31.093 L153.317,31.093 C153.029,31.093 152.7665,31.12 152.5295,31.174 C152.2925,31.228 152.09,31.315 151.922,31.435 C151.754,31.555 151.6235,31.714 151.5305,31.912 C151.4375,32.11 151.391,32.353 151.391,32.641 C151.391,33.103 151.5245,33.46 151.7915,33.712 C152.0585,33.964 152.483,34.09 153.065,34.09 Z M153.137,33.442 C152.795,33.442 152.552,33.3745 152.408,33.2395 C152.264,33.1045 152.192,32.902 152.192,32.632 C152.192,32.446 152.216,32.293 152.264,32.173 C152.312,32.053 152.384,31.9585 152.48,31.8895 C152.576,31.8205 152.699,31.774 152.849,31.75 C152.999,31.726 153.173,31.714 153.371,31.714 L153.371,31.714 L154.802,31.714 L154.802,32.515 C154.676,32.803 154.469,33.0295 154.181,33.1945 C153.893,33.3595 153.545,33.442 153.137,33.442 Z M159.267,34.054 C159.369,34.054 159.462,34.0495 159.546,34.0405 C159.63,34.0315 159.72,34.021 159.816,34.009 L159.816,34.009 L159.816,33.352 C159.732,33.37 159.6495,33.3835 159.5685,33.3925 C159.4875,33.4015 159.393,33.406 159.285,33.406 C159.135,33.406 159.015,33.3925 158.925,33.3655 C158.835,33.3385 158.7645,33.2905 158.7135,33.2215 C158.6625,33.1525 158.628,33.058 158.61,32.938 C158.592,32.818 158.583,32.662 158.583,32.47 L158.583,32.47 L158.583,29.788 L159.789,29.788 L159.789,29.14 L158.583,29.14 L158.583,27.988 L157.809,27.988 L157.809,29.14 L157.089,29.14 L157.089,29.788 L157.809,29.788 L157.809,32.515 C157.809,32.833 157.8345,33.0925 157.8855,33.2935 C157.9365,33.4945 158.0205,33.652 158.1375,33.766 C158.2545,33.88 158.4045,33.9565 158.5875,33.9955 C158.7705,34.0345 158.997,34.054 159.267,34.054 Z M162.292,34 L162.292,29.779 L163.435,29.779 L163.435,29.14 L162.292,29.14 C162.292,28.864 162.307,28.636 162.337,28.456 C162.367,28.276 162.415,28.1335 162.481,28.0285 C162.547,27.9235 162.634,27.85 162.742,27.808 C162.85,27.766 162.988,27.745 163.156,27.745 C163.366,27.745 163.546,27.76 163.696,27.79 L163.696,27.79 L163.696,27.169 C163.612,27.157 163.5235,27.1465 163.4305,27.1375 C163.3375,27.1285 163.246,27.124 163.156,27.124 C162.91,27.124 162.6865,27.148 162.4855,27.196 C162.2845,27.244 162.112,27.3385 161.968,27.4795 C161.824,27.6205 161.713,27.82 161.635,28.078 C161.557,28.336 161.518,28.675 161.518,29.095 L161.518,29.095 L161.518,29.14 L160.708,29.14 L160.708,29.779 L161.518,29.779 L161.518,34 L162.292,34 Z M166.847,34.09 C167.207,34.09 167.5265,34.0495 167.8055,33.9685 C168.0845,33.8875 168.3185,33.7495 168.5075,33.5545 C168.6965,33.3595 168.8405,33.1015 168.9395,32.7805 C169.0385,32.4595 169.088,32.056 169.088,31.57 C169.088,31.084 169.0385,30.6805 168.9395,30.3595 C168.8405,30.0385 168.6965,29.7805 168.5075,29.5855 C168.3185,29.3905 168.0845,29.2525 167.8055,29.1715 C167.5265,29.0905 167.207,29.05 166.847,29.05 C166.487,29.05 166.1675,29.0905 165.8885,29.1715 C165.6095,29.2525 165.374,29.3905 165.182,29.5855 C164.99,29.7805 164.8445,30.0385 164.7455,30.3595 C164.6465,30.6805 164.597,31.084 164.597,31.57 C164.597,32.056 164.6465,32.4595 164.7455,32.7805 C164.8445,33.1015 164.99,33.3595 165.182,33.5545 C165.374,33.7495 165.6095,33.8875 165.8885,33.9685 C166.1675,34.0495 166.487,34.09 166.847,34.09 Z M166.847,33.433 C166.583,33.433 166.361,33.403 166.181,33.343 C166.001,33.283 165.854,33.181 165.74,33.037 C165.626,32.893 165.545,32.701 165.497,32.461 C165.449,32.221 165.425,31.924 165.425,31.57 C165.425,31.216 165.4475,30.919 165.4925,30.679 C165.5375,30.439 165.6155,30.247 165.7265,30.103 C165.8375,29.959 165.9845,29.8555 166.1675,29.7925 C166.3505,29.7295 166.577,29.698 166.847,29.698 C167.111,29.698 167.3345,29.7295 167.5175,29.7925 C167.7005,29.8555 167.8475,29.959 167.9585,30.103 C168.0695,30.247 168.149,30.439 168.197,30.679 C168.245,30.919 168.269,31.216 168.269,31.57 C168.269,31.924 168.2465,32.221 168.2015,32.461 C168.1565,32.701 168.08,32.893 167.972,33.037 C167.864,33.181 167.7185,33.283 167.5355,33.343 C167.3525,33.403 167.123,33.433 166.847,33.433 Z M171.771,34 L171.771,30.823 C171.837,30.607 171.924,30.43 172.032,30.292 C172.14,30.154 172.26,30.0445 172.392,29.9635 C172.524,29.8825 172.665,29.827 172.815,29.797 C172.965,29.767 173.118,29.752 173.274,29.752 L173.274,29.752 L173.382,29.752 L173.409,29.05 L173.319,29.05 C173.175,29.05 173.0265,29.062 172.8735,29.086 C172.7205,29.11 172.575,29.158 172.437,29.23 C172.299,29.302 172.173,29.401 172.059,29.527 C171.945,29.653 171.849,29.818 171.771,30.022 L171.771,30.022 L171.771,29.14 L170.997,29.14 L170.997,34 L171.771,34 Z M175.732,34 L175.732,30.625 C175.792,30.439 175.864,30.2875 175.948,30.1705 C176.032,30.0535 176.128,29.9635 176.236,29.9005 C176.344,29.8375 176.464,29.7955 176.596,29.7745 C176.728,29.7535 176.869,29.743 177.019,29.743 C177.373,29.743 177.61,29.8465 177.73,30.0535 C177.85,30.2605 177.91,30.55 177.91,30.922 L177.91,30.922 L177.91,34 L178.684,34 L178.684,30.598 C178.738,30.424 178.807,30.2815 178.891,30.1705 C178.975,30.0595 179.071,29.9725 179.179,29.9095 C179.287,29.8465 179.4055,29.803 179.5345,29.779 C179.6635,29.755 179.8,29.743 179.944,29.743 C180.31,29.743 180.5575,29.845 180.6865,30.049 C180.8155,30.253 180.88,30.544 180.88,30.922 L180.88,30.922 L180.88,34 L181.654,34 L181.654,30.643 C181.654,30.409 181.624,30.1945 181.564,29.9995 C181.504,29.8045 181.4095,29.6365 181.2805,29.4955 C181.1515,29.3545 180.9865,29.245 180.7855,29.167 C180.5845,29.089 180.343,29.05 180.061,29.05 C179.911,29.05 179.7625,29.062 179.6155,29.086 C179.4685,29.11 179.3275,29.152 179.1925,29.212 C179.0575,29.272 178.9345,29.353 178.8235,29.455 C178.7125,29.557 178.621,29.686 178.549,29.842 C178.447,29.596 178.282,29.4025 178.054,29.2615 C177.826,29.1205 177.52,29.05 177.136,29.05 C176.842,29.05 176.572,29.0995 176.326,29.1985 C176.08,29.2975 175.882,29.491 175.732,29.779 L175.732,29.779 L175.732,29.14 L174.958,29.14 L174.958,34 L175.732,34 Z M187.587,34 L187.587,29.779 L188.73,29.779 L188.73,29.14 L187.587,29.14 C187.587,28.864 187.602,28.636 187.632,28.456 C187.662,28.276 187.71,28.1335 187.776,28.0285 C187.842,27.9235 187.929,27.85 188.037,27.808 C188.145,27.766 188.283,27.745 188.451,27.745 C188.661,27.745 188.841,27.76 188.991,27.79 L188.991,27.79 L188.991,27.169 C188.907,27.157 188.8185,27.1465 188.7255,27.1375 C188.6325,27.1285 188.541,27.124 188.451,27.124 C188.205,27.124 187.9815,27.148 187.7805,27.196 C187.5795,27.244 187.407,27.3385 187.263,27.4795 C187.119,27.6205 187.008,27.82 186.93,28.078 C186.852,28.336 186.813,28.675 186.813,29.095 L186.813,29.095 L186.813,29.14 L186.003,29.14 L186.003,29.779 L186.813,29.779 L186.813,34 L187.587,34 Z M192.142,34.09 C192.502,34.09 192.8215,34.0495 193.1005,33.9685 C193.3795,33.8875 193.6135,33.7495 193.8025,33.5545 C193.9915,33.3595 194.1355,33.1015 194.2345,32.7805 C194.3335,32.4595 194.383,32.056 194.383,31.57 C194.383,31.084 194.3335,30.6805 194.2345,30.3595 C194.1355,30.0385 193.9915,29.7805 193.8025,29.5855 C193.6135,29.3905 193.3795,29.2525 193.1005,29.1715 C192.8215,29.0905 192.502,29.05 192.142,29.05 C191.782,29.05 191.4625,29.0905 191.1835,29.1715 C190.9045,29.2525 190.669,29.3905 190.477,29.5855 C190.285,29.7805 190.1395,30.0385 190.0405,30.3595 C189.9415,30.6805 189.892,31.084 189.892,31.57 C189.892,32.056 189.9415,32.4595 190.0405,32.7805 C190.1395,33.1015 190.285,33.3595 190.477,33.5545 C190.669,33.7495 190.9045,33.8875 191.1835,33.9685 C191.4625,34.0495 191.782,34.09 192.142,34.09 Z M192.142,33.433 C191.878,33.433 191.656,33.403 191.476,33.343 C191.296,33.283 191.149,33.181 191.035,33.037 C190.921,32.893 190.84,32.701 190.792,32.461 C190.744,32.221 190.72,31.924 190.72,31.57 C190.72,31.216 190.7425,30.919 190.7875,30.679 C190.8325,30.439 190.9105,30.247 191.0215,30.103 C191.1325,29.959 191.2795,29.8555 191.4625,29.7925 C191.6455,29.7295 191.872,29.698 192.142,29.698 C192.406,29.698 192.6295,29.7295 192.8125,29.7925 C192.9955,29.8555 193.1425,29.959 193.2535,30.103 C193.3645,30.247 193.444,30.439 193.492,30.679 C193.54,30.919 193.564,31.216 193.564,31.57 C193.564,31.924 193.5415,32.221 193.4965,32.461 C193.4515,32.701 193.375,32.893 193.267,33.037 C193.159,33.181 193.0135,33.283 192.8305,33.343 C192.6475,33.403 192.418,33.433 192.142,33.433 Z M197.066,34 L197.066,30.823 C197.132,30.607 197.219,30.43 197.327,30.292 C197.435,30.154 197.555,30.0445 197.687,29.9635 C197.819,29.8825 197.96,29.827 198.11,29.797 C198.26,29.767 198.413,29.752 198.569,29.752 L198.569,29.752 L198.677,29.752 L198.704,29.05 L198.614,29.05 C198.47,29.05 198.3215,29.062 198.1685,29.086 C198.0155,29.11 197.87,29.158 197.732,29.23 C197.594,29.302 197.468,29.401 197.354,29.527 C197.24,29.653 197.144,29.818 197.066,30.022 L197.066,30.022 L197.066,29.14 L196.292,29.14 L196.292,34 L197.066,34 Z M203.935,34 L203.935,31.489 L204.8665,31.489 C204.9175,31.489 204.967,31.486 205.015,31.48 L205.015,31.48 L206.734,34 L207.688,34 L205.816,31.39 C206.248,31.294 206.569,31.1065 206.779,30.8275 C206.989,30.5485 207.094,30.139 207.094,29.599 C207.094,29.257 207.052,28.9675 206.968,28.7305 C206.884,28.4935 206.7475,28.303 206.5585,28.159 C206.3695,28.015 206.1235,27.9115 205.8205,27.8485 C205.5175,27.7855 205.147,27.754 204.709,27.754 L204.709,27.754 L203.125,27.754 L203.125,34 L203.935,34 Z M204.637,30.814 L203.935,30.814 L203.935,28.456 L204.637,28.456 C204.925,28.456 205.1725,28.471 205.3795,28.501 C205.5865,28.531 205.756,28.588 205.888,28.672 C206.02,28.756 206.1175,28.873 206.1805,29.023 C206.2435,29.173 206.275,29.365 206.275,29.599 C206.275,29.863 206.2435,30.076 206.1805,30.238 C206.1175,30.4 206.02,30.523 205.888,30.607 C205.756,30.691 205.5865,30.7465 205.3795,30.7735 C205.1725,30.8005 204.925,30.814 204.637,30.814 L204.637,30.814 Z M210.974,34.09 C211.148,34.09 211.3175,34.0825 211.4825,34.0675 C211.6475,34.0525 211.802,34.0315 211.946,34.0045 C212.09,33.9775 212.219,33.946 212.333,33.91 C212.447,33.874 212.54,33.838 212.612,33.802 L212.612,33.802 L212.612,33.091 C212.426,33.181 212.1935,33.256 211.9145,33.316 C211.6355,33.376 211.361,33.406 211.091,33.406 C210.797,33.406 210.551,33.3745 210.353,33.3115 C210.155,33.2485 209.996,33.154 209.876,33.028 C209.756,32.902 209.669,32.7415 209.615,32.5465 C209.561,32.3515 209.534,32.122 209.534,31.858 L209.534,31.858 L212.828,31.651 C212.84,31.537 212.8505,31.4305 212.8595,31.3315 C212.8685,31.2325 212.873,31.15 212.873,31.084 C212.873,30.85 212.849,30.6115 212.801,30.3685 C212.753,30.1255 212.66,29.9065 212.522,29.7115 C212.384,29.5165 212.1875,29.3575 211.9325,29.2345 C211.6775,29.1115 211.343,29.05 210.929,29.05 C210.581,29.05 210.2705,29.0905 209.9975,29.1715 C209.7245,29.2525 209.4935,29.3905 209.3045,29.5855 C209.1155,29.7805 208.9715,30.0385 208.8725,30.3595 C208.7735,30.6805 208.724,31.084 208.724,31.57 C208.724,32.056 208.7735,32.4595 208.8725,32.7805 C208.9715,33.1015 209.117,33.3595 209.309,33.5545 C209.501,33.7495 209.7365,33.8875 210.0155,33.9685 C210.2945,34.0495 210.614,34.09 210.974,34.09 Z M209.534,31.282 C209.54,31.036 209.564,30.814 209.606,30.616 C209.648,30.418 209.72,30.25 209.822,30.112 C209.924,29.974 210.0635,29.869 210.2405,29.797 C210.4175,29.725 210.647,29.689 210.929,29.689 C211.193,29.689 211.403,29.7265 211.559,29.8015 C211.715,29.8765 211.8335,29.9785 211.9145,30.1075 C211.9955,30.2365 212.048,30.3865 212.072,30.5575 C212.096,30.7285 212.108,30.907 212.108,31.093 L212.108,31.093 L209.534,31.282 Z M215.889,34.054 C216.489,34.054 216.9465,33.9415 217.2615,33.7165 C217.5765,33.4915 217.734,33.136 217.734,32.65 C217.734,32.416 217.707,32.218 217.653,32.056 C217.599,31.894 217.512,31.7575 217.392,31.6465 C217.272,31.5355 217.1145,31.4425 216.9195,31.3675 C216.7245,31.2925 216.489,31.222 216.213,31.156 C216.021,31.114 215.865,31.0735 215.745,31.0345 C215.625,30.9955 215.532,30.9475 215.466,30.8905 C215.4,30.8335 215.3535,30.766 215.3265,30.688 C215.2995,30.61 215.286,30.508 215.286,30.382 C215.286,30.106 215.3715,29.92 215.5425,29.824 C215.7135,29.728 215.97,29.68 216.312,29.68 C216.54,29.68 216.756,29.698 216.96,29.734 C217.164,29.77 217.335,29.815 217.473,29.869 L217.473,29.869 L217.527,29.212 C217.407,29.164 217.2315,29.125 217.0005,29.095 C216.7695,29.065 216.537,29.05 216.303,29.05 C215.721,29.05 215.2845,29.17 214.9935,29.41 C214.7025,29.65 214.557,29.968 214.557,30.364 C214.557,30.568 214.578,30.745 214.62,30.895 C214.662,31.045 214.734,31.174 214.836,31.282 C214.938,31.39 215.076,31.483 215.25,31.561 C215.424,31.639 215.646,31.708 215.916,31.768 C216.15,31.822 216.3375,31.873 216.4785,31.921 C216.6195,31.969 216.729,32.0245 216.807,32.0875 C216.885,32.1505 216.9375,32.2285 216.9645,32.3215 C216.9915,32.4145 217.005,32.533 217.005,32.677 C217.005,32.965 216.9105,33.1615 216.7215,33.2665 C216.5325,33.3715 216.252,33.424 215.88,33.424 C215.772,33.424 215.6535,33.4195 215.5245,33.4105 C215.3955,33.4015 215.268,33.388 215.142,33.37 C215.016,33.352 214.8945,33.331 214.7775,33.307 C214.6605,33.283 214.56,33.259 214.476,33.235 L214.476,33.235 L214.476,33.901 C214.542,33.919 214.6305,33.9385 214.7415,33.9595 C214.8525,33.9805 214.974,33.997 215.106,34.009 C215.238,34.021 215.3715,34.0315 215.5065,34.0405 C215.6415,34.0495 215.769,34.054 215.889,34.054 Z M221.587,34.09 C221.761,34.09 221.9305,34.0825 222.0955,34.0675 C222.2605,34.0525 222.415,34.0315 222.559,34.0045 C222.703,33.9775 222.832,33.946 222.946,33.91 C223.06,33.874 223.153,33.838 223.225,33.802 L223.225,33.802 L223.225,33.091 C223.039,33.181 222.8065,33.256 222.5275,33.316 C222.2485,33.376 221.974,33.406 221.704,33.406 C221.41,33.406 221.164,33.3745 220.966,33.3115 C220.768,33.2485 220.609,33.154 220.489,33.028 C220.369,32.902 220.282,32.7415 220.228,32.5465 C220.174,32.3515 220.147,32.122 220.147,31.858 L220.147,31.858 L223.441,31.651 C223.453,31.537 223.4635,31.4305 223.4725,31.3315 C223.4815,31.2325 223.486,31.15 223.486,31.084 C223.486,30.85 223.462,30.6115 223.414,30.3685 C223.366,30.1255 223.273,29.9065 223.135,29.7115 C222.997,29.5165 222.8005,29.3575 222.5455,29.2345 C222.2905,29.1115 221.956,29.05 221.542,29.05 C221.194,29.05 220.8835,29.0905 220.6105,29.1715 C220.3375,29.2525 220.1065,29.3905 219.9175,29.5855 C219.7285,29.7805 219.5845,30.0385 219.4855,30.3595 C219.3865,30.6805 219.337,31.084 219.337,31.57 C219.337,32.056 219.3865,32.4595 219.4855,32.7805 C219.5845,33.1015 219.73,33.3595 219.922,33.5545 C220.114,33.7495 220.3495,33.8875 220.6285,33.9685 C220.9075,34.0495 221.227,34.09 221.587,34.09 Z M220.147,31.282 C220.153,31.036 220.177,30.814 220.219,30.616 C220.261,30.418 220.333,30.25 220.435,30.112 C220.537,29.974 220.6765,29.869 220.8535,29.797 C221.0305,29.725 221.26,29.689 221.542,29.689 C221.806,29.689 222.016,29.7265 222.172,29.8015 C222.328,29.8765 222.4465,29.9785 222.5275,30.1075 C222.6085,30.2365 222.661,30.3865 222.685,30.5575 C222.709,30.7285 222.721,30.907 222.721,31.093 L222.721,31.093 L220.147,31.282 Z M226.151,34 L226.151,30.823 C226.217,30.607 226.304,30.43 226.412,30.292 C226.52,30.154 226.64,30.0445 226.772,29.9635 C226.904,29.8825 227.045,29.827 227.195,29.797 C227.345,29.767 227.498,29.752 227.654,29.752 L227.654,29.752 L227.762,29.752 L227.789,29.05 L227.699,29.05 C227.555,29.05 227.4065,29.062 227.2535,29.086 C227.1005,29.11 226.955,29.158 226.817,29.23 C226.679,29.302 226.553,29.401 226.439,29.527 C226.325,29.653 226.229,29.818 226.151,30.022 L226.151,30.022 L226.151,29.14 L225.377,29.14 L225.377,34 L226.151,34 Z M231.345,34 L233.163,29.14 L232.344,29.14 L230.922,33.226 L230.868,33.226 L229.392,29.14 L228.609,29.14 L230.427,34 L231.345,34 Z M236.494,34.09 C236.854,34.09 237.1735,34.0495 237.4525,33.9685 C237.7315,33.8875 237.9655,33.7495 238.1545,33.5545 C238.3435,33.3595 238.4875,33.1015 238.5865,32.7805 C238.6855,32.4595 238.735,32.056 238.735,31.57 C238.735,31.084 238.6855,30.6805 238.5865,30.3595 C238.4875,30.0385 238.3435,29.7805 238.1545,29.5855 C237.9655,29.3905 237.7315,29.2525 237.4525,29.1715 C237.1735,29.0905 236.854,29.05 236.494,29.05 C236.134,29.05 235.8145,29.0905 235.5355,29.1715 C235.2565,29.2525 235.021,29.3905 234.829,29.5855 C234.637,29.7805 234.4915,30.0385 234.3925,30.3595 C234.2935,30.6805 234.244,31.084 234.244,31.57 C234.244,32.056 234.2935,32.4595 234.3925,32.7805 C234.4915,33.1015 234.637,33.3595 234.829,33.5545 C235.021,33.7495 235.2565,33.8875 235.5355,33.9685 C235.8145,34.0495 236.134,34.09 236.494,34.09 Z M236.494,33.433 C236.23,33.433 236.008,33.403 235.828,33.343 C235.648,33.283 235.501,33.181 235.387,33.037 C235.273,32.893 235.192,32.701 235.144,32.461 C235.096,32.221 235.072,31.924 235.072,31.57 C235.072,31.216 235.0945,30.919 235.1395,30.679 C235.1845,30.439 235.2625,30.247 235.3735,30.103 C235.4845,29.959 235.6315,29.8555 235.8145,29.7925 C235.9975,29.7295 236.224,29.698 236.494,29.698 C236.758,29.698 236.9815,29.7295 237.1645,29.7925 C237.3475,29.8555 237.4945,29.959 237.6055,30.103 C237.7165,30.247 237.796,30.439 237.844,30.679 C237.892,30.919 237.916,31.216 237.916,31.57 C237.916,31.924 237.8935,32.221 237.8485,32.461 C237.8035,32.701 237.727,32.893 237.619,33.037 C237.511,33.181 237.3655,33.283 237.1825,33.343 C236.9995,33.403 236.77,33.433 236.494,33.433 Z M241.04,28.249 C241.202,28.249 241.319,28.222 241.391,28.168 C241.463,28.114 241.499,27.988 241.499,27.79 C241.499,27.586 241.463,27.4585 241.391,27.4075 C241.319,27.3565 241.202,27.331 241.04,27.331 C240.866,27.331 240.7445,27.3565 240.6755,27.4075 C240.6065,27.4585 240.572,27.586 240.572,27.79 C240.572,27.988 240.6065,28.114 240.6755,28.168 C240.7445,28.222 240.866,28.249 241.04,28.249 Z M241.418,34 L241.418,29.14 L240.644,29.14 L240.644,34 L241.418,34 Z M244.38,34 L244.38,30.823 C244.446,30.607 244.533,30.43 244.641,30.292 C244.749,30.154 244.869,30.0445 245.001,29.9635 C245.133,29.8825 245.274,29.827 245.424,29.797 C245.574,29.767 245.727,29.752 245.883,29.752 L245.883,29.752 L245.991,29.752 L246.018,29.05 L245.928,29.05 C245.784,29.05 245.6355,29.062 245.4825,29.086 C245.3295,29.11 245.184,29.158 245.046,29.23 C244.908,29.302 244.782,29.401 244.668,29.527 C244.554,29.653 244.458,29.818 244.38,30.022 L244.38,30.022 L244.38,29.14 L243.606,29.14 L243.606,34 L244.38,34 Z" id="DalianGeneralManagementPlatformforReservoir" fill="#FFFFFF" opacity="0.500167847"></path>
            <path d="M20.349,20.549 L20.349,19.373 L18.732,19.1 C18.634,19.072 18.543,19.037 18.459,18.995 C18.375,18.953 18.312,18.89 18.27,18.806 L18.27,18.806 L12.684,7.634 L20.349,7.634 L20.349,6.458 L12.159,6.458 L12.159,0.851 L8.841,0.851 L8.841,6.458 L0.651,6.458 L0.651,7.634 L8.316,7.634 L2.73,18.806 C2.688,18.89 2.625,18.953 2.541,18.995 C2.457,19.037 2.366,19.072 2.268,19.1 L2.268,19.1 L0.651,19.373 L0.651,20.549 L4.914,19.835 C5.152,19.793 5.376,19.7125 5.586,19.5935 C5.796,19.4745 5.957,19.31 6.069,19.1 L6.069,19.1 L10.5,10.301 L14.931,19.1 C15.043,19.31 15.204,19.4745 15.414,19.5935 C15.624,19.7125 15.848,19.793 16.086,19.835 L16.086,19.835 L20.349,20.549 Z M28.2392728,5.492 L26.4122728,0.788 L23.1992728,0.788 L25.0472728,5.492 L28.2392728,5.492 Z M38.2352728,18.26 L38.2352728,14.669 L42.8762728,14.669 L42.8762728,13.493 L38.2352728,13.493 L38.2352728,10.448 L42.3722728,10.448 L42.3722728,9.272 L38.2352728,9.272 L38.2352728,5.387 L34.9172728,5.387 L34.9172728,9.272 L33.1742728,9.272 C33.0622728,9.272 32.9712728,9.23 32.9012728,9.146 C32.8312728,9.062 32.8102728,8.964 32.8382728,8.852 L32.8382728,8.852 L34.2872728,3.728 L42.6242728,3.728 L42.6242728,2.552 L34.6022728,2.552 L35.0852728,0.872 L31.8932728,0.872 L31.4312728,2.552 L29.7092728,2.552 L29.7092728,3.728 L31.0952728,3.728 L29.6882728,8.789 C29.6182728,9.027 29.6077728,9.244 29.6567728,9.44 C29.7057728,9.636 29.7932728,9.811 29.9192728,9.965 C30.0452728,10.119 30.2027728,10.238 30.3917728,10.322 C30.5807728,10.406 30.7942728,10.448 31.0322728,10.448 L31.0322728,10.448 L34.9172728,10.448 L34.9172728,13.493 L29.3942728,13.493 L29.3942728,14.669 L34.9172728,14.669 L34.9172728,18.26 L38.2352728,18.26 Z M23.1782728,20.528 L27.3782728,18.974 C27.6582728,18.862 27.8787728,18.687 28.0397728,18.449 C28.2007728,18.211 28.2812728,17.945 28.2812728,17.651 L28.2812728,17.651 L28.2812728,8.768 C28.2812728,8.376 28.1447728,8.047 27.8717728,7.781 C27.5987728,7.515 27.2732728,7.382 26.8952728,7.382 L26.8952728,7.382 L23.1782728,7.382 L23.1782728,8.516 L24.5222728,8.516 C24.6762728,8.516 24.8022728,8.5685 24.9002728,8.6735 C24.9982728,8.7785 25.0472728,8.901 25.0472728,9.041 L25.0472728,9.041 L25.0472728,18.239 C25.0472728,18.421 24.9562728,18.547 24.7742728,18.617 L24.7742728,18.617 L23.1782728,19.163 L23.1782728,20.528 Z M42.7922728,20.192 L42.7922728,19.037 L27.5252728,19.037 L28.1552728,20.192 L42.7922728,20.192 Z M57.2135455,20.549 L57.2135455,8.789 L60.3005455,8.789 C60.4405455,8.789 60.5560455,8.8345 60.6470455,8.9255 C60.7380455,9.0165 60.7835455,9.132 60.7835455,9.272 L60.7835455,9.272 L60.7835455,16.58 C60.7835455,16.72 60.7380455,16.8355 60.6470455,16.9265 C60.5560455,17.0175 60.4405455,17.063 60.3005455,17.063 L60.3005455,17.063 L58.2845455,17.063 L58.9145455,18.218 L62.7785455,18.218 C63.1425455,18.218 63.4505455,18.092 63.7025455,17.84 C63.9545455,17.588 64.0805455,17.28 64.0805455,16.916 L64.0805455,16.916 L64.0805455,8.936 C64.0805455,8.572 63.9545455,8.264 63.7025455,8.012 C63.4505455,7.76 63.1425455,7.634 62.7785455,7.634 L62.7785455,7.634 L57.2135455,7.634 L57.2135455,4.61 L65.4035455,4.61 L65.4035455,3.455 L57.4655455,3.455 L56.6465455,0.851 L53.3285455,0.851 L54.1475455,3.455 L45.7055455,3.455 L45.7055455,4.61 L53.8955455,4.61 L53.8955455,7.634 L48.4355455,7.634 C48.0435455,7.634 47.7110455,7.7705 47.4380455,8.0435 C47.1650455,8.3165 47.0285455,8.649 47.0285455,9.041 L47.0285455,9.041 L47.0285455,18.218 L50.3465455,18.218 L50.3465455,9.272 C50.3465455,9.132 50.3920455,9.0165 50.4830455,8.9255 C50.5740455,8.8345 50.6825455,8.789 50.8085455,8.789 L50.8085455,8.789 L53.8955455,8.789 L53.8955455,20.549 L57.2135455,20.549 Z M78.8168183,20.255 C79.1808183,20.255 79.4923183,20.1255 79.7513183,19.8665 C80.0103183,19.6075 80.1398183,19.296 80.1398183,18.932 L80.1398183,18.932 L80.1398183,0.851 L76.8008183,0.851 L76.8008183,18.617 C76.8008183,18.743 76.7553183,18.8515 76.6643183,18.9425 C76.5733183,19.0335 76.4648183,19.079 76.3388183,19.079 L76.3388183,19.079 L73.5878183,19.079 L74.2178183,20.255 L78.8168183,20.255 Z M84.4028183,8.705 L87.8048183,3.329 L84.4028183,3.329 L81.0008183,8.705 L84.4028183,8.705 Z M68.2538183,20.423 L72.6638183,17.693 C72.8738183,17.567 73.0628183,17.4095 73.2308183,17.2205 C73.3988183,17.0315 73.5108183,16.825 73.5668183,16.601 L73.5668183,16.601 L76.1708183,5.261 C76.2408183,4.939 76.1883183,4.6345 76.0133183,4.3475 C75.8383183,4.0605 75.5828183,3.917 75.2468183,3.917 L75.2468183,3.917 L68.7158183,3.917 L68.7158183,5.093 L72.4748183,5.093 C72.5868183,5.093 72.6743183,5.1385 72.7373183,5.2295 C72.8003183,5.3205 72.8178183,5.422 72.7898183,5.534 L72.7898183,5.534 L70.0178183,17.63 C69.9898183,17.77 69.9268183,17.896 69.8288183,18.008 C69.7308183,18.12 69.6188183,18.211 69.4928183,18.281 L69.4928183,18.281 L68.2538183,19.016 L68.2538183,20.423 Z M87.9308183,19.919 L87.9308183,18.512 L86.8178183,17.756 C86.6498183,17.658 86.5308183,17.497 86.4608183,17.273 L86.4608183,17.273 L84.2558183,9.755 L80.9378183,9.755 L82.8278183,16.013 C82.8978183,16.209 82.9993183,16.3945 83.1323183,16.5695 C83.2653183,16.7445 83.4228183,16.888 83.6048183,17 L83.6048183,17 L87.9308183,19.919 Z M90.760091,20.549 L93.532091,19.772 C94.064091,19.618 94.487591,19.3345 94.802591,18.9215 C95.117591,18.5085 95.275091,18.029 95.275091,17.483 L95.275091,17.483 L95.275091,3.791 C95.275091,3.707 95.306591,3.6335 95.369591,3.5705 C95.432591,3.5075 95.506091,3.476 95.590091,3.476 L95.590091,3.476 L110.458091,3.476 L110.458091,2.3 L103.654091,2.3 L103.192091,0.851 L99.979091,0.851 L100.441091,2.3 L93.238091,2.3 C92.874091,2.3 92.569591,2.4225 92.324591,2.6675 C92.079591,2.9125 91.957091,3.217 91.957091,3.581 L91.957091,3.581 L91.957091,18.365 C91.957091,18.561 91.897591,18.7395 91.778591,18.9005 C91.659591,19.0615 91.502091,19.17 91.306091,19.226 L91.306091,19.226 L90.760091,19.373 L90.760091,20.549 Z M105.271091,20.549 L105.271091,17.21 L110.458091,17.21 L110.458091,16.034 L105.271091,16.034 L105.271091,13.283 L109.870091,13.283 L109.870091,12.107 L105.271091,12.107 L105.271091,8.537 L101.953091,8.537 L101.953091,12.107 L99.853091,12.107 C99.741091,12.107 99.650091,12.065 99.580091,11.981 C99.510091,11.897 99.489091,11.799 99.517091,11.687 L99.517091,11.687 L100.966091,7.193 L110.164091,7.193 L110.164091,6.017 L101.344091,6.017 L101.890091,4.337 L98.677091,4.337 L98.131091,6.017 L96.304091,6.017 L96.304091,7.193 L97.753091,7.193 L96.346091,11.624 C96.276091,11.862 96.262091,12.079 96.304091,12.275 C96.346091,12.471 96.430091,12.646 96.556091,12.8 C96.682091,12.954 96.839591,13.073 97.028591,13.157 C97.217591,13.241 97.431091,13.283 97.669091,13.283 L97.669091,13.283 L101.953091,13.283 L101.953091,16.034 L95.947091,16.034 L95.947091,17.21 L101.953091,17.21 L101.953091,20.549 L105.271091,20.549 Z M114.473864,16.643 C114.774864,16.727 115.107364,16.713 115.471364,16.601 L115.471364,16.601 L120.616364,14.942 L120.616364,13.766 L117.109364,14.9 C116.969364,14.956 116.853864,14.9315 116.762864,14.8265 C116.671864,14.7215 116.661364,14.606 116.731364,14.48 L116.731364,14.48 L120.931364,5.954 L117.970364,5.954 L116.752364,8.369 L116.626364,8.39 C116.514364,8.418 116.426864,8.39 116.363864,8.306 C116.300864,8.222 116.290364,8.124 116.332364,8.012 L116.332364,8.012 L119.650364,0.851 L116.689364,0.851 L113.455364,8.033 C113.329364,8.313 113.280364,8.5825 113.308364,8.8415 C113.336364,9.1005 113.423864,9.321 113.570864,9.503 C113.717864,9.685 113.917364,9.818 114.169364,9.902 C114.421364,9.986 114.708364,9.993 115.030364,9.923 L115.030364,9.923 L116.059364,9.713 L113.644364,14.459 C113.476364,14.795 113.406364,15.117 113.434364,15.425 C113.462364,15.733 113.567364,15.992 113.749364,16.202 C113.931364,16.412 114.172864,16.559 114.473864,16.643 Z M124.144364,5.513 L124.144364,4.064 C124.144364,3.938 124.189864,3.8295 124.280864,3.7385 C124.371864,3.6475 124.480364,3.602 124.606364,3.602 L124.606364,3.602 L129.163364,3.602 C129.289364,3.602 129.397864,3.6475 129.488864,3.7385 C129.579864,3.8295 129.625364,3.938 129.625364,4.064 L129.625364,4.064 L129.625364,5.513 L132.943364,5.513 L132.943364,3.749 C132.943364,3.385 132.817364,3.077 132.565364,2.825 C132.313364,2.573 132.005364,2.447 131.641364,2.447 L131.641364,2.447 L128.659364,2.447 L128.260364,0.851 L124.690364,0.851 L125.089364,2.447 L122.212364,2.447 C121.820364,2.447 121.487864,2.5835 121.214864,2.8565 C120.941864,3.1295 120.805364,3.455 120.805364,3.833 L120.805364,3.833 L120.805364,5.513 L124.144364,5.513 Z M132.292364,8.579 L132.292364,7.403 L121.561364,7.403 L121.561364,8.579 L132.292364,8.579 Z M127.063364,20.402 C127.427364,20.402 127.731864,20.2795 127.976864,20.0345 C128.221864,19.7895 128.344364,19.485 128.344364,19.121 L128.344364,19.121 L128.344364,12.59 L132.796364,12.59 L132.796364,11.414 L121.057364,11.414 L121.057364,12.59 L125.068364,12.59 L125.068364,18.911 C125.068364,18.995 125.036864,19.0685 124.973864,19.1315 C124.910864,19.1945 124.837364,19.226 124.753364,19.226 L124.753364,19.226 L123.535364,19.226 L124.165364,20.402 L127.063364,20.402 Z M120.721364,20.486 L123.220364,18.869 C123.416364,18.743 123.584364,18.5785 123.724364,18.3755 C123.864364,18.1725 123.948364,17.945 123.976364,17.693 L123.976364,17.693 L124.501364,14.228 L121.813364,14.228 L121.183364,18.722 C121.155364,18.89 121.078364,19.023 120.952364,19.121 L120.952364,19.121 L120.721364,19.289 L120.721364,20.486 Z M132.985364,20.486 L132.985364,19.289 L132.439364,18.932 C132.313364,18.848 132.236364,18.715 132.208364,18.533 L132.208364,18.533 L131.557364,14.228 L128.869364,14.228 L129.373364,17.588 C129.457364,18.12 129.709364,18.512 130.129364,18.764 L130.129364,18.764 L132.985364,20.486 Z M113.287364,20.549 L120.637364,18.617 L120.637364,17.441 L113.287364,19.331 L113.287364,20.549 Z M153.349637,9.818 L153.349637,8.936 L155.512637,9.797 L155.512637,8.537 L154.840637,8.243 C154.700637,8.173 154.609637,8.061 154.567637,7.907 L154.567637,7.907 L152.677637,1.796 C152.607637,1.558 152.446637,1.3725 152.194637,1.2395 C151.942637,1.1065 151.676637,1.04 151.396637,1.04 L151.396637,1.04 L140.035637,1.04 C139.755637,1.04 139.489637,1.1065 139.237637,1.2395 C138.985637,1.3725 138.824637,1.558 138.754637,1.796 L138.754637,1.796 L136.864637,7.865 C136.822637,8.019 136.724637,8.131 136.570637,8.201 L136.570637,8.201 L135.814637,8.537 L135.814637,9.797 L138.019637,8.936 L138.019637,9.818 L153.349637,9.818 Z M152.593637,8.642 L138.796637,8.642 L139.552637,8.348 C140.084637,8.138 140.441637,7.732 140.623637,7.13 L140.623637,7.13 L141.946637,2.468 C141.974637,2.398 142.034137,2.3385 142.125137,2.2895 C142.216137,2.2405 142.310637,2.216 142.408637,2.216 L142.408637,2.216 L149.023637,2.216 C149.121637,2.216 149.216137,2.2405 149.307137,2.2895 C149.398137,2.3385 149.457637,2.398 149.485637,2.468 L149.485637,2.468 L150.829637,7.172 C150.983637,7.746 151.340637,8.145 151.900637,8.369 L151.900637,8.369 L152.593637,8.642 Z M152.404637,20.381 C152.768637,20.381 153.073137,20.2585 153.318137,20.0135 C153.563137,19.7685 153.685637,19.464 153.685637,19.1 L153.685637,19.1 L153.685637,13.367 C153.685637,13.003 153.563137,12.6985 153.318137,12.4535 C153.073137,12.2085 152.768637,12.086 152.404637,12.086 L152.404637,12.086 L138.922637,12.086 C138.558637,12.086 138.254137,12.2085 138.009137,12.4535 C137.764137,12.6985 137.641637,13.003 137.641637,13.367 L137.641637,13.367 L137.641637,19.1 C137.641637,19.464 137.764137,19.7685 138.009137,20.0135 C138.254137,20.2585 138.558637,20.381 138.922637,20.381 L138.922637,20.381 L152.404637,20.381 Z M149.989637,19.205 L141.337637,19.205 C141.253637,19.205 141.180137,19.1735 141.117137,19.1105 C141.054137,19.0475 141.022637,18.974 141.022637,18.89 L141.022637,18.89 L141.022637,13.577 C141.022637,13.493 141.054137,13.4195 141.117137,13.3565 C141.180137,13.2935 141.253637,13.262 141.337637,13.262 L141.337637,13.262 L149.989637,13.262 C150.073637,13.262 150.147137,13.2935 150.210137,13.3565 C150.273137,13.4195 150.304637,13.493 150.304637,13.577 L150.304637,13.577 L150.304637,18.89 C150.304637,18.974 150.273137,19.0475 150.210137,19.1105 C150.147137,19.1735 150.073637,19.205 149.989637,19.205 L149.989637,19.205 Z M158.341909,5.345 L161.302909,5.03 C161.582909,5.002 161.824409,4.911 162.027409,4.757 C162.230409,4.603 162.387909,4.393 162.499909,4.127 L162.499909,4.127 L163.024909,2.846 L163.570909,2.846 L164.515909,5.324 L167.623909,5.324 L166.678909,2.846 L168.568909,2.846 L168.568909,1.67 L163.507909,1.67 L163.843909,0.851 L160.525909,0.851 L159.286909,3.875 C159.244909,4.015 159.146909,4.085 158.992909,4.085 L158.992909,4.085 L158.341909,4.169 L158.341909,5.345 Z M168.232909,5.345 L171.193909,5.03 C171.473909,5.002 171.715409,4.911 171.918409,4.757 C172.121409,4.603 172.278909,4.393 172.390909,4.127 L172.390909,4.127 L172.915909,2.846 L173.797909,2.846 L174.742909,5.324 L177.850909,5.324 L176.905909,2.846 L178.039909,2.846 L178.039909,1.67 L173.398909,1.67 L173.734909,0.851 L170.416909,0.851 L169.177909,3.875 C169.135909,4.015 169.037909,4.085 168.883909,4.085 L168.883909,4.085 L168.232909,4.169 L168.232909,5.345 Z M175.351909,20.381 C175.715909,20.381 176.020409,20.2585 176.265409,20.0135 C176.510409,19.7685 176.632909,19.464 176.632909,19.1 L176.632909,19.1 L176.632909,17.525 C176.632909,17.161 176.510409,16.8565 176.265409,16.6115 C176.020409,16.3665 175.715909,16.244 175.351909,16.244 L175.351909,16.244 L163.654909,16.244 L163.654909,14.48 L175.036909,14.48 C175.400909,14.48 175.705409,14.3575 175.950409,14.1125 C176.195409,13.8675 176.317909,13.563 176.317909,13.199 L176.317909,13.199 L176.317909,11.624 C176.317909,11.344 176.251409,11.1025 176.118409,10.8995 C175.985409,10.6965 175.799909,10.546 175.561909,10.448 L175.561909,10.448 L177.472909,10.448 L177.472909,8.327 C177.472909,7.963 177.346909,7.655 177.094909,7.403 C176.842909,7.151 176.534909,7.025 176.170909,7.025 L176.170909,7.025 L170.101909,7.025 L169.744909,5.765 L166.174909,5.765 L166.531909,7.025 L160.315909,7.025 C159.923909,7.025 159.591409,7.1615 159.318409,7.4345 C159.045409,7.7075 158.908909,8.033 158.908909,8.411 L158.908909,8.411 L158.908909,10.448 L161.092909,10.448 C160.854909,10.546 160.669409,10.6965 160.536409,10.8995 C160.403409,11.1025 160.336909,11.344 160.336909,11.624 L160.336909,11.624 L160.336909,19.1 C160.336909,19.464 160.459409,19.7685 160.704409,20.0135 C160.949409,20.2585 161.253909,20.381 161.617909,20.381 L161.617909,20.381 L175.351909,20.381 Z M174.154909,10.343 L162.247909,10.343 L162.247909,8.642 C162.247909,8.516 162.293409,8.4075 162.384409,8.3165 C162.475409,8.2255 162.583909,8.18 162.709909,8.18 L162.709909,8.18 L173.692909,8.18 C173.818909,8.18 173.927409,8.2255 174.018409,8.3165 C174.109409,8.4075 174.154909,8.516 174.154909,8.642 L174.154909,8.642 L174.154909,10.343 Z M172.684909,13.304 L163.654909,13.304 L163.654909,11.834 C163.654909,11.75 163.686409,11.6765 163.749409,11.6135 C163.812409,11.5505 163.885909,11.519 163.969909,11.519 L163.969909,11.519 L172.684909,11.519 C172.768909,11.519 172.842409,11.5505 172.905409,11.6135 C172.968409,11.6765 172.999909,11.75 172.999909,11.834 L172.999909,11.834 L172.999909,12.989 C172.999909,13.073 172.968409,13.1465 172.905409,13.2095 C172.842409,13.2725 172.768909,13.304 172.684909,13.304 L172.684909,13.304 Z M172.999909,19.205 L163.969909,19.205 C163.885909,19.205 163.812409,19.1735 163.749409,19.1105 C163.686409,19.0475 163.654909,18.974 163.654909,18.89 L163.654909,18.89 L163.654909,17.42 L172.999909,17.42 C173.083909,17.42 173.157409,17.4515 173.220409,17.5145 C173.283409,17.5775 173.314909,17.651 173.314909,17.735 L173.314909,17.735 L173.314909,18.89 C173.314909,18.974 173.283409,19.0475 173.220409,19.1105 C173.157409,19.1735 173.083909,19.205 172.999909,19.205 L172.999909,19.205 Z M200.567182,20.339 L200.567182,19.142 L196.199182,19.142 L196.199182,15.824 L200.189182,15.824 L200.189182,14.627 L196.199182,14.627 L196.199182,11.414 L198.908182,11.414 C199.272182,11.414 199.576682,11.2915 199.821682,11.0465 C200.066682,10.8015 200.189182,10.497 200.189182,10.133 L200.189182,10.133 L200.189182,2.321 C200.189182,1.957 200.066682,1.6525 199.821682,1.4075 C199.576682,1.1625 199.272182,1.04 198.908182,1.04 L198.908182,1.04 L190.172182,1.04 C189.808182,1.04 189.503682,1.1625 189.258682,1.4075 C189.013682,1.6525 188.891182,1.957 188.891182,2.321 L188.891182,2.321 L188.891182,10.133 C188.891182,10.497 189.013682,10.8015 189.258682,11.0465 C189.503682,11.2915 189.808182,11.414 190.172182,11.414 L190.172182,11.414 L192.881182,11.414 L192.881182,14.627 L188.891182,14.627 L188.891182,15.824 L192.881182,15.824 L192.881182,19.142 L188.513182,19.142 L188.513182,20.339 L200.567182,20.339 Z M180.869182,20.255 L188.093182,18.869 L188.093182,17.588 L186.140182,17.966 L186.140182,10.406 L187.883182,10.406 L187.883182,9.23 L186.140182,9.23 L186.140182,2.426 L188.093182,2.426 L188.093182,1.25 L180.869182,1.25 L180.869182,2.426 L182.822182,2.426 L182.822182,9.23 L181.079182,9.23 L181.079182,10.406 L182.822182,10.406 L182.822182,18.596 L180.869182,18.974 L180.869182,20.255 Z M193.154182,5.618 L192.062182,5.618 L192.062182,2.531 C192.062182,2.447 192.093682,2.3735 192.156682,2.3105 C192.219682,2.2475 192.293182,2.216 192.377182,2.216 L192.377182,2.216 L193.154182,2.216 L193.154182,5.618 Z M197.018182,5.618 L195.926182,5.618 L195.926182,2.216 L196.703182,2.216 C196.787182,2.216 196.860682,2.2475 196.923682,2.3105 C196.986682,2.3735 197.018182,2.447 197.018182,2.531 L197.018182,2.531 L197.018182,5.618 Z M193.154182,10.238 L192.377182,10.238 C192.293182,10.238 192.219682,10.2065 192.156682,10.1435 C192.093682,10.0805 192.062182,10.007 192.062182,9.923 L192.062182,9.923 L192.062182,6.815 L193.154182,6.815 L193.154182,10.238 Z M196.703182,10.238 L195.926182,10.238 L195.926182,6.815 L197.018182,6.815 L197.018182,9.923 C197.018182,10.007 196.986682,10.0805 196.923682,10.1435 C196.860682,10.2065 196.787182,10.238 196.703182,10.238 L196.703182,10.238 Z M214.904455,20.549 L214.904455,13.241 L223.094455,13.241 L223.094455,12.065 L214.904455,12.065 L214.904455,2.426 L222.506455,2.426 L222.506455,1.25 L204.068455,1.25 L204.068455,2.426 L211.586455,2.426 L211.586455,12.065 L203.396455,12.065 L203.396455,13.241 L211.586455,13.241 L211.586455,20.549 L214.904455,20.549 Z M209.381455,11.246 L209.381455,10.07 L208.919455,9.86 C208.695455,9.762 208.562455,9.622 208.520455,9.44 L208.520455,9.44 L207.323455,3.707 L204.215455,3.707 L205.265455,8.936 C205.321455,9.216 205.443955,9.4505 205.632955,9.6395 C205.821955,9.8285 206.042455,9.972 206.294455,10.07 L206.294455,10.07 L209.381455,11.246 Z M217.109455,11.246 L220.196455,10.07 C220.448455,9.972 220.668955,9.8285 220.857955,9.6395 C221.046955,9.4505 221.169455,9.216 221.225455,8.936 L221.225455,8.936 L222.275455,3.707 L219.167455,3.707 L217.970455,9.44 C217.928455,9.622 217.795455,9.762 217.571455,9.86 L217.571455,9.86 L217.109455,10.07 L217.109455,11.246 Z M245.600728,10.763 L242.954728,3.266 L239.636728,3.266 L241.253728,7.865 L229.871728,8.453 C229.759728,8.467 229.679228,8.4355 229.630228,8.3585 C229.581228,8.2815 229.577728,8.194 229.619728,8.096 L229.619728,8.096 L232.769728,0.851 L229.451728,0.851 L226.112728,8.033 C226.000728,8.271 225.955228,8.5055 225.976228,8.7365 C225.997228,8.9675 226.067228,9.167 226.186228,9.335 C226.305228,9.503 226.466228,9.636 226.669228,9.734 C226.872228,9.832 227.106728,9.874 227.372728,9.86 L227.372728,9.86 L241.673728,9.02 L242.282728,10.763 L245.600728,10.763 Z M243.290728,20.381 C243.654728,20.381 243.959228,20.2585 244.204228,20.0135 C244.449228,19.7685 244.571728,19.464 244.571728,19.1 L244.571728,19.1 L244.571728,12.989 C244.571728,12.625 244.449228,12.3205 244.204228,12.0755 C243.959228,11.8305 243.654728,11.708 243.290728,11.708 L243.290728,11.708 L227.960728,11.708 C227.596728,11.708 227.292228,11.8305 227.047228,12.0755 C226.802228,12.3205 226.679728,12.625 226.679728,12.989 L226.679728,12.989 L226.679728,19.1 C226.679728,19.464 226.802228,19.7685 227.047228,20.0135 C227.292228,20.2585 227.596728,20.381 227.960728,20.381 L227.960728,20.381 L243.290728,20.381 Z M240.938728,19.205 L230.312728,19.205 C230.228728,19.205 230.155228,19.1735 230.092228,19.1105 C230.029228,19.0475 229.997728,18.974 229.997728,18.89 L229.997728,18.89 L229.997728,13.199 C229.997728,13.115 230.029228,13.0415 230.092228,12.9785 C230.155228,12.9155 230.228728,12.884 230.312728,12.884 L230.312728,12.884 L240.938728,12.884 C241.022728,12.884 241.096228,12.9155 241.159228,12.9785 C241.222228,13.0415 241.253728,13.115 241.253728,13.199 L241.253728,13.199 L241.253728,18.89 C241.253728,18.974 241.222228,19.0475 241.159228,19.1105 C241.096228,19.1735 241.022728,19.205 240.938728,19.205 L240.938728,19.205 Z" id="" fill="url(#linearGradient-1)"></path>
        </g>
    </g>
</svg>